<?xml version="1.0" standalone="no"?>
<!DOCTYPE svg PUBLIC "-//W3C//DTD SVG 20010904//EN"
 "http://www.w3.org/TR/2001/REC-SVG-20010904/DTD/svg10.dtd">
<svg version="1.0" xmlns="http://www.w3.org/2000/svg"
 width="260.000000pt" height="260.000000pt" viewBox="0 0 260.000000 260.000000"
 preserveAspectRatio="xMidYMid meet">
<metadata>
Created by potrace 1.11, written by Peter Selinger 2001-2013
</metadata>
<g transform="translate(0.000000,260.000000) scale(0.100000,-0.100000)"
fill="#000000" stroke="none">
<path d="M227 2092 c-15 -17 -17 -59 -17 -403 0 -413 4 -448 53 -532 55 -92
142 -146 252 -155 145 -11 286 72 353 208 24 49 27 66 27 155 0 82 -4 109 -22
147 -32 69 -108 146 -177 179 -103 49 -235 51 -282 4 -31 -31 -30 -60 0 -90
23 -23 30 -24 98 -19 67 6 77 4 128 -23 77 -40 120 -112 120 -198 -1 -156
-127 -255 -274 -214 -50 14 -118 82 -134 135 -8 30 -12 148 -12 413 0 358 -1
372 -20 391 -25 25 -72 26 -93 2z"/>
<path d="M1965 1707 c-96 -32 -158 -88 -204 -186 l-26 -56 -3 -457 c-3 -449
-3 -457 18 -478 28 -28 64 -25 89 6 20 26 21 37 21 442 0 299 3 426 12 456 7
23 30 59 53 82 101 101 263 74 332 -55 53 -100 15 -236 -82 -296 -44 -27 -56
-30 -138 -30 -81 0 -90 -2 -108 -24 -59 -73 33 -134 175 -117 117 15 239 105
288 213 32 69 32 227 0 296 -33 72 -111 150 -185 182 -73 33 -179 43 -242 22z"/>
<path d="M975 1696 c-31 -22 -21 -65 38 -171 31 -55 73 -143 93 -195 47 -122
69 -166 89 -174 24 -9 23 -9 36 33 31 103 -83 412 -182 495 -35 30 -47 32 -74
12z"/>
<path d="M1563 1690 c-44 -26 -85 -85 -149 -212 -215 -428 -352 -1036 -276
-1230 13 -31 41 -76 63 -100 40 -43 40 -43 34 -13 -3 17 -8 91 -12 165 -12
280 50 586 183 898 56 130 72 163 163 322 74 131 84 163 52 180 -25 13 -20 13
-58 -10z"/>
</g>
</svg>
